<svg width="29" height="25" viewBox="0 0 29 25" fill="none" xmlns="http://www.w3.org/2000/svg">
<g clip-path="url(#clip0_3_208)">
<path d="M15.9058 1.45772C15.6535 0.942271 15.1204 0.614258 14.5349 0.614258C13.9494 0.614258 13.421 0.942271 13.1639 1.45772L10.103 7.65717L3.26727 8.65059C2.69604 8.73493 2.22001 9.12855 2.04388 9.66743C1.86775 10.2063 2.01056 10.8014 2.41994 11.1997L7.38016 16.0309L6.20913 22.8583C6.11392 23.4206 6.35194 23.9922 6.8232 24.3249C7.29447 24.6576 7.91807 24.6998 8.43218 24.4327L14.5396 21.2229L20.6471 24.4327C21.1612 24.6998 21.7848 24.6623 22.256 24.3249C22.7273 23.9876 22.9653 23.4206 22.8701 22.8583L21.6943 16.0309L26.6546 11.1997C27.0639 10.8014 27.2115 10.2063 27.0306 9.66743C26.8497 9.12855 26.3785 8.73493 25.8072 8.65059L18.9667 7.65717L15.9058 1.45772Z" fill="#FFC83C"/>
</g>
<defs>
<clipPath id="clip0_3_208">
<rect width="27.4192" height="23.9918" fill="white" transform="translate(0.820496 0.614258)"/>
</clipPath>
</defs>
</svg>
