<svg width="24" height="31" viewBox="0 0 24 31" fill="none" xmlns="http://www.w3.org/2000/svg">
<path d="M13.3135 29.3327C16.3031 25.5914 23.1214 16.5236 23.1214 11.4303C23.1214 5.25307 18.1097 0.241333 11.9324 0.241333C5.75514 0.241333 0.743408 5.25307 0.743408 11.4303C0.743408 16.5236 7.5617 25.5914 10.5513 29.3327C11.2681 30.2243 12.5967 30.2243 13.3135 29.3327ZM11.9324 15.16C9.87526 15.16 8.20274 13.4875 8.20274 11.4303C8.20274 9.37318 9.87526 7.70066 11.9324 7.70066C13.9895 7.70066 15.6621 9.37318 15.6621 11.4303C15.6621 13.4875 13.9895 15.16 11.9324 15.16Z" fill="#A35B35"/>
</svg>
